<svg width="118" height="40" viewBox="0 0 118 40" fill="none" xmlns="http://www.w3.org/2000/svg">
<rect width="40" height="40" rx="10" fill="white"/>
<path d="M31.6957 7.11414C32.8305 7.11414 33.7505 8.0341 33.7505 9.16893C33.7505 10.3038 32.8305 11.2237 31.6957 11.2237L29.8826 11.2237C29.7491 11.2237 29.6409 11.1155 29.6409 10.982L29.6409 9.16893C29.6409 8.0341 30.5609 7.11414 31.6957 7.11414Z" fill="black"/>
<path d="M20.1757 19.0798L27.9302 11.3864C28.0761 11.2413 27.9939 10.9498 27.8056 10.9498H23.633C23.5877 10.9498 23.5438 10.9683 23.5084 11.0038L15.1533 19.2911C15.023 19.4192 14.8304 19.305 14.8304 19.0998V11.1951C14.8304 11.0593 14.7411 10.9498 14.6321 10.9498H11.7569C11.6478 10.9498 11.5586 11.0593 11.5586 11.1951V28.2387C11.5586 28.3745 11.6478 28.484 11.7569 28.484H14.6321C14.7411 28.484 14.8304 28.3745 14.8304 28.2387V24.7661C14.8304 24.6921 14.8573 24.6211 14.904 24.5748L17.4945 22.0047C17.5568 21.943 17.6432 21.9337 17.7126 21.98L24.6414 27.0786C25.7759 27.8423 27.0436 28.3112 28.331 28.4501C28.4458 28.4624 28.5449 28.3483 28.5449 28.2048V24.9343C28.5449 24.8093 28.4698 24.7075 28.3693 24.6921C27.6115 24.5733 26.8722 24.2802 26.2037 23.8297L20.2054 19.487C20.0808 19.4037 20.0652 19.1893 20.1757 19.0798Z" fill="black"/>
<path d="M76.5884 30.5385C76.5884 30.7934 76.795 31 77.0498 31H80.0093C80.2641 31 80.4707 30.7934 80.4707 30.5385V9.46146C80.4707 9.2066 80.2641 9 80.0093 9H77.0498C76.795 9 76.5884 9.2066 76.5884 9.46146V30.5385Z" fill="white"/>
<path d="M114.118 30.5385C114.118 30.7934 114.324 31 114.579 31H117.539C117.793 31 118 30.7934 118 30.5385V9.46146C118 9.2066 117.793 9 117.539 9H114.579C114.324 9 114.118 9.2066 114.118 9.46146V30.5385Z" fill="white"/>
<path d="M102.365 9C102.152 9 101.967 9.14543 101.916 9.35211L97.5397 27.2959C97.4668 27.5901 97.1224 27.5901 97.0514 27.2959L92.6729 9.35207C92.6225 9.14541 92.4401 9 92.2273 9C90.7961 9 86.2723 9 84.8119 9C84.5571 9 84.3525 9.2066 84.3525 9.46146V30.5385C84.3525 30.7934 84.5591 31 84.814 31H88.1003C88.3552 31 88.5618 30.7995 88.5618 30.5446C88.5618 27.7232 88.5618 12.8183 88.5618 12.8183C88.5618 12.4641 88.9773 12.3906 89.0611 12.7312L93.4322 30.6479C93.4827 30.8546 93.6678 31 93.8806 31H100.709C100.921 31 101.107 30.8546 101.157 30.6479L105.526 12.7331C105.61 12.3925 106.026 12.466 106.026 12.8202V30.5385C106.026 30.7934 106.232 31 106.487 31H109.773C110.028 31 110.235 30.7934 110.235 30.5385V9.46146C110.235 9.2066 110.028 9 109.773 9H102.365Z" fill="white"/>
<path d="M62.504 19.2006L71.4316 9.77885C71.7103 9.48476 71.5018 9 71.0966 9H66.9419C66.8188 9 66.7008 9.04922 66.6141 9.1367L56.3818 19.4658C56.223 19.6264 55.9882 19.4832 55.9882 19.2258V9.46146C55.9882 9.2066 55.7816 9 55.5268 9H52.4615C52.2066 9 52 9.2066 52 9.46146V30.5385C52 30.7934 52.2066 31 52.4615 31H55.5268C55.7816 31 55.9882 30.7934 55.9882 30.5385V26.3352C55.9882 26.2423 56.021 26.1533 56.078 26.0952L59.2357 22.8705C59.3117 22.7931 59.417 22.7815 59.5016 22.8395L67.9477 29.2367C69.1828 30.0924 70.7553 30.6532 72.1954 30.8874C72.4668 30.9316 72.7059 30.717 72.7059 30.442C72.7059 29.0616 72.7059 27.5272 72.7059 26.6348C72.7059 26.4084 72.5413 26.2171 72.3199 26.1695C71.4846 25.9896 70.5561 25.6487 69.852 25.1603L62.5403 19.7116C62.3883 19.6071 62.3693 19.338 62.504 19.2006Z" fill="white"/>
</svg>
